<svg xmlns="http://www.w3.org/2000/svg" xmlns:xlink="http://www.w3.org/1999/xlink" width="500" zoomAndPan="magnify" viewBox="0 0 375 374.999991" height="500" preserveAspectRatio="xMidYMid meet" version="1.0"><defs><g/><clipPath id="c7172ac6c9"><path d="M 118.570312 94.859375 L 241.570312 94.859375 L 241.570312 191.609375 L 118.570312 191.609375 Z M 118.570312 94.859375 " clip-rule="nonzero"/></clipPath><clipPath id="69ab32ed79"><path d="M 198.269531 130.226562 C 200.164062 130.582031 202.027344 131.035156 203.847656 131.570312 C 203.785156 132.261719 203.960938 132.921875 204.308594 133.46875 C 204.292969 133.445312 204.277344 133.417969 204.261719 133.390625 C 204.253906 133.382812 204.25 133.371094 204.246094 133.363281 C 204.042969 133.011719 203.917969 132.632812 203.863281 132.257812 C 203.863281 132.242188 203.859375 132.230469 203.859375 132.214844 C 203.84375 132.09375 203.835938 131.976562 203.835938 131.855469 C 203.839844 130.816406 204.382812 129.804688 205.347656 129.246094 C 205.820312 128.972656 206.339844 128.84375 206.851562 128.84375 C 207.898438 128.84375 208.914062 129.386719 209.476562 130.351562 C 209.664062 130.675781 209.78125 131.019531 209.839844 131.367188 C 209.867188 131.527344 209.878906 131.691406 209.878906 131.851562 C 209.878906 132.441406 209.707031 133.019531 209.378906 133.515625 C 211.425781 134.351562 213.414062 135.304688 215.324219 136.371094 C 215.140625 136.714844 214.9375 137.046875 214.710938 137.367188 C 214.714844 137.359375 214.71875 137.355469 214.726562 137.347656 C 216.816406 134.367188 217.097656 130.320312 215.136719 127.007812 C 213.972656 125.046875 212.230469 123.644531 210.25 122.902344 C 210.070312 122.84375 209.886719 122.789062 209.699219 122.738281 C 208.816406 122.476562 207.890625 122.34375 206.957031 122.34375 C 205.671875 122.34375 204.371094 122.601562 203.136719 123.140625 C 203.121094 123.148438 203.105469 123.152344 203.089844 123.160156 L 192.34375 116.976562 L 181.335938 123.308594 L 172.203125 118.054688 L 191.6875 106.839844 L 223.304688 125.03125 L 223.304688 136.476562 L 191.675781 154.695312 L 160.046875 136.484375 C 160.046875 136.488281 160.046875 136.488281 160.046875 136.488281 L 137.761719 123.660156 C 137.882812 121.792969 137.433594 119.9375 136.492188 118.3125 C 134.929688 115.621094 132.222656 113.894531 129.1875 113.574219 C 124.929688 113.121094 120.863281 115.558594 119.269531 119.523438 C 118.210938 122.15625 118.332031 125.234375 119.863281 127.878906 C 120.363281 128.742188 120.980469 129.496094 121.679688 130.140625 C 124.347656 132.585938 128.175781 133.320312 131.550781 132.050781 L 149.660156 142.480469 L 149.660156 143.691406 L 149.667969 143.707031 L 149.667969 167.414062 L 191.6875 191.609375 L 227.117188 171.21875 C 228.6875 172.132812 230.503906 172.582031 232.308594 172.515625 C 233.84375 172.457031 235.375 172.035156 236.761719 171.234375 C 241.351562 168.601562 242.933594 162.742188 240.277344 158.164062 C 237.875 154.011719 232.816406 152.335938 228.46875 154.035156 C 225.160156 155.324219 222.800781 158.34375 222.417969 161.929688 L 191.671875 179.625 L 164.90625 164.230469 C 164.910156 164.230469 164.914062 164.230469 164.914062 164.230469 L 160.054688 161.4375 L 160.054688 148.460938 L 186.488281 163.671875 L 191.691406 166.667969 L 227.9375 145.800781 L 233.691406 142.488281 L 233.691406 119.050781 C 224.640625 113.84375 215.59375 108.628906 206.539062 103.414062 C 206.539062 103.414062 206.539062 103.417969 206.535156 103.417969 C 201.582031 100.5625 196.625 97.707031 191.671875 94.859375 L 161.789062 112.0625 L 159.730469 110.875 C 159.808594 109.058594 159.375 107.261719 158.449219 105.667969 C 155.792969 101.085938 149.925781 99.527344 145.339844 102.167969 C 140.746094 104.8125 139.171875 110.65625 141.824219 115.238281 C 144.210938 119.359375 149.261719 121.09375 153.667969 119.355469 L 173.917969 131.007812 C 173.917969 131.007812 173.914062 131.007812 173.910156 131.011719 L 181.347656 135.285156 L 192.375 128.945312 C 194.339844 130.078125 196.160156 131.320312 198.066406 132.511719 C 198.066406 132.484375 198.0625 132.453125 198.058594 132.425781 C 198.425781 137.214844 202.4375 140.988281 207.335938 140.988281 C 210.339844 140.988281 213.007812 139.566406 214.710938 137.367188 C 214.9375 137.046875 215.140625 136.714844 215.324219 136.371094 C 213.410156 135.304688 211.425781 134.351562 209.378906 133.515625 C 209.375 133.523438 209.371094 133.53125 209.363281 133.539062 C 209.257812 133.695312 209.132812 133.847656 208.996094 133.984375 C 208.996094 133.984375 208.996094 133.984375 208.992188 133.984375 C 208.882812 134.09375 208.765625 134.195312 208.636719 134.289062 C 208.488281 134.394531 208.332031 134.488281 208.167969 134.566406 C 207.917969 134.691406 207.648438 134.777344 207.371094 134.824219 C 207.363281 134.824219 207.359375 134.828125 207.355469 134.828125 C 207.269531 134.839844 207.1875 134.851562 207.101562 134.859375 C 207.101562 134.859375 207.101562 134.859375 207.097656 134.859375 C 207.019531 134.867188 206.941406 134.867188 206.859375 134.867188 C 206.808594 134.867188 206.761719 134.867188 206.710938 134.863281 C 206.265625 134.84375 205.847656 134.726562 205.476562 134.535156 C 204.996094 134.289062 204.597656 133.917969 204.308594 133.472656 C 204.308594 133.46875 204.308594 133.46875 204.308594 133.46875 C 203.960938 132.921875 203.785156 132.261719 203.847656 131.570312 C 202.027344 131.03125 200.164062 130.582031 198.269531 130.226562 Z M 130.859375 121.703125 C 131.039062 122.054688 131.148438 122.425781 131.183594 122.800781 C 131.292969 123.929688 130.761719 125.082031 129.683594 125.699219 C 129.0625 126.058594 128.363281 126.171875 127.703125 126.070312 C 127.410156 126.023438 127.125 125.933594 126.855469 125.804688 C 126.382812 125.574219 125.960938 125.214844 125.652344 124.746094 C 125.621094 124.699219 125.589844 124.648438 125.5625 124.601562 C 124.726562 123.160156 125.222656 121.320312 126.667969 120.484375 C 127.144531 120.210938 127.660156 120.082031 128.171875 120.082031 C 128.515625 120.082031 128.851562 120.140625 129.171875 120.25 C 129.789062 120.464844 130.339844 120.878906 130.714844 121.460938 C 130.769531 121.542969 130.816406 121.621094 130.859375 121.703125 Z M 153.152344 110.664062 C 153.117188 111.132812 152.976562 111.589844 152.734375 111.996094 C 152.550781 112.300781 152.3125 112.574219 152.035156 112.800781 C 151.914062 112.894531 151.785156 112.984375 151.648438 113.066406 C 151.171875 113.335938 150.652344 113.46875 150.144531 113.46875 C 149.675781 113.46875 149.21875 113.359375 148.800781 113.15625 C 148.3125 112.914062 147.902344 112.546875 147.605469 112.097656 C 147.578125 112.054688 147.550781 112.007812 147.519531 111.960938 C 147.246094 111.484375 147.117188 110.964844 147.117188 110.453125 C 147.117188 109.925781 147.257812 109.410156 147.519531 108.953125 C 147.785156 108.492188 148.167969 108.109375 148.628906 107.84375 C 148.648438 107.832031 148.667969 107.820312 148.683594 107.808594 C 149.511719 107.359375 150.460938 107.335938 151.273438 107.664062 C 151.777344 107.867188 152.214844 108.203125 152.542969 108.628906 C 152.617188 108.730469 152.6875 108.835938 152.753906 108.949219 C 153 109.375 153.128906 109.832031 153.152344 110.289062 C 153.15625 110.34375 153.15625 110.398438 153.15625 110.457031 C 153.15625 110.527344 153.15625 110.59375 153.152344 110.664062 Z M 230.195312 165.394531 C 228.558594 164.21875 228.515625 161.789062 230.132812 160.558594 C 231.519531 159.511719 233.46875 159.832031 234.445312 161.234375 C 235.394531 162.597656 235.050781 164.464844 233.703125 165.414062 C 232.648438 166.152344 231.238281 166.144531 230.195312 165.394531 Z M 198.035156 131.710938 C 198.035156 131.792969 198.035156 131.871094 198.035156 131.953125 C 198.035156 131.871094 198.035156 131.792969 198.035156 131.710938 Z M 198.035156 131.953125 C 198.039062 132.03125 198.042969 132.109375 198.046875 132.1875 C 198.042969 132.109375 198.039062 132.03125 198.035156 131.953125 Z M 198.046875 132.191406 C 198.050781 132.269531 198.054688 132.347656 198.058594 132.425781 C 198.054688 132.347656 198.050781 132.269531 198.046875 132.191406 Z M 198.046875 132.191406 " clip-rule="evenodd"/></clipPath><linearGradient x1="190.492828" gradientTransform="matrix(0.0135622, 0, 0, 0.0135204, 118.576296, 94.858308)" y1="-138.994615" x2="6738.175748" gradientUnits="userSpaceOnUse" y2="8853.026155" id="a388d5bbcc"><stop stop-opacity="1" stop-color="rgb(49.398804%, 85.099792%, 34.098816%)" offset="0"/><stop stop-opacity="1" stop-color="rgb(49.398804%, 85.099792%, 34.098816%)" offset="0.125"/><stop stop-opacity="1" stop-color="rgb(49.398804%, 85.099792%, 34.098816%)" offset="0.1875"/><stop stop-opacity="1" stop-color="rgb(49.398804%, 85.099792%, 34.098816%)" offset="0.21875"/><stop stop-opacity="1" stop-color="rgb(49.143982%, 85.014343%, 34.405518%)" offset="0.222656"/><stop stop-opacity="1" stop-color="rgb(48.890686%, 84.928894%, 34.712219%)" offset="0.226562"/><stop stop-opacity="1" stop-color="rgb(48.550415%, 84.814453%, 35.122681%)" offset="0.230469"/><stop stop-opacity="1" stop-color="rgb(48.210144%, 84.701538%, 35.534668%)" offset="0.234375"/><stop stop-opacity="1" stop-color="rgb(47.868347%, 84.587097%, 35.945129%)" offset="0.238281"/><stop stop-opacity="1" stop-color="rgb(47.528076%, 84.474182%, 36.357117%)" offset="0.242188"/><stop stop-opacity="1" stop-color="rgb(47.186279%, 84.359741%, 36.767578%)" offset="0.246094"/><stop stop-opacity="1" stop-color="rgb(46.846008%, 84.246826%, 37.179565%)" offset="0.25"/><stop stop-opacity="1" stop-color="rgb(46.504211%, 84.132385%, 37.590027%)" offset="0.253906"/><stop stop-opacity="1" stop-color="rgb(46.16394%, 84.017944%, 38.002014%)" offset="0.257812"/><stop stop-opacity="1" stop-color="rgb(45.822144%, 83.903503%, 38.412476%)" offset="0.261719"/><stop stop-opacity="1" stop-color="rgb(45.481873%, 83.790588%, 38.824463%)" offset="0.265625"/><stop stop-opacity="1" stop-color="rgb(45.140076%, 83.676147%, 39.23645%)" offset="0.269531"/><stop stop-opacity="1" stop-color="rgb(44.799805%, 83.563232%, 39.648438%)" offset="0.273438"/><stop stop-opacity="1" stop-color="rgb(44.458008%, 83.448792%, 40.058899%)" offset="0.277344"/><stop stop-opacity="1" stop-color="rgb(44.117737%, 83.335876%, 40.470886%)" offset="0.28125"/><stop stop-opacity="1" stop-color="rgb(43.777466%, 83.221436%, 40.881348%)" offset="0.285156"/><stop stop-opacity="1" stop-color="rgb(43.437195%, 83.106995%, 41.293335%)" offset="0.289062"/><stop stop-opacity="1" stop-color="rgb(43.095398%, 82.992554%, 41.703796%)" offset="0.292969"/><stop stop-opacity="1" stop-color="rgb(42.755127%, 82.879639%, 42.115784%)" offset="0.296875"/><stop stop-opacity="1" stop-color="rgb(42.41333%, 82.765198%, 42.526245%)" offset="0.300781"/><stop stop-opacity="1" stop-color="rgb(42.073059%, 82.652283%, 42.938232%)" offset="0.304688"/><stop stop-opacity="1" stop-color="rgb(41.731262%, 82.537842%, 43.348694%)" offset="0.308594"/><stop stop-opacity="1" stop-color="rgb(41.390991%, 82.424927%, 43.760681%)" offset="0.3125"/><stop stop-opacity="1" stop-color="rgb(41.049194%, 82.310486%, 44.171143%)" offset="0.316406"/><stop stop-opacity="1" stop-color="rgb(40.708923%, 82.196045%, 44.58313%)" offset="0.320312"/><stop stop-opacity="1" stop-color="rgb(40.367126%, 82.081604%, 44.993591%)" offset="0.324219"/><stop stop-opacity="1" stop-color="rgb(40.026855%, 81.968689%, 45.405579%)" offset="0.328125"/><stop stop-opacity="1" stop-color="rgb(39.686584%, 81.854248%, 45.81604%)" offset="0.332031"/><stop stop-opacity="1" stop-color="rgb(39.346313%, 81.741333%, 46.228027%)" offset="0.335938"/><stop stop-opacity="1" stop-color="rgb(39.004517%, 81.626892%, 46.640015%)" offset="0.339844"/><stop stop-opacity="1" stop-color="rgb(38.664246%, 81.513977%, 47.052002%)" offset="0.34375"/><stop stop-opacity="1" stop-color="rgb(38.322449%, 81.399536%, 47.462463%)" offset="0.347656"/><stop stop-opacity="1" stop-color="rgb(37.982178%, 81.285095%, 47.874451%)" offset="0.351563"/><stop stop-opacity="1" stop-color="rgb(37.640381%, 81.170654%, 48.284912%)" offset="0.355469"/><stop stop-opacity="1" stop-color="rgb(37.30011%, 81.057739%, 48.696899%)" offset="0.359375"/><stop stop-opacity="1" stop-color="rgb(36.958313%, 80.943298%, 49.107361%)" offset="0.363281"/><stop stop-opacity="1" stop-color="rgb(36.618042%, 80.830383%, 49.519348%)" offset="0.367188"/><stop stop-opacity="1" stop-color="rgb(36.276245%, 80.715942%, 49.92981%)" offset="0.371094"/><stop stop-opacity="1" stop-color="rgb(35.935974%, 80.603027%, 50.341797%)" offset="0.375"/><stop stop-opacity="1" stop-color="rgb(35.594177%, 80.488586%, 50.752258%)" offset="0.378906"/><stop stop-opacity="1" stop-color="rgb(35.253906%, 80.374146%, 51.164246%)" offset="0.382812"/><stop stop-opacity="1" stop-color="rgb(34.913635%, 80.259705%, 51.574707%)" offset="0.386719"/><stop stop-opacity="1" stop-color="rgb(34.573364%, 80.14679%, 51.986694%)" offset="0.390625"/><stop stop-opacity="1" stop-color="rgb(34.231567%, 80.032349%, 52.397156%)" offset="0.394531"/><stop stop-opacity="1" stop-color="rgb(33.891296%, 79.919434%, 52.809143%)" offset="0.398438"/><stop stop-opacity="1" stop-color="rgb(33.5495%, 79.804993%, 53.219604%)" offset="0.402344"/><stop stop-opacity="1" stop-color="rgb(33.209229%, 79.692078%, 53.631592%)" offset="0.40625"/><stop stop-opacity="1" stop-color="rgb(32.867432%, 79.577637%, 54.043579%)" offset="0.410156"/><stop stop-opacity="1" stop-color="rgb(32.527161%, 79.463196%, 54.455566%)" offset="0.414063"/><stop stop-opacity="1" stop-color="rgb(32.185364%, 79.348755%, 54.866028%)" offset="0.417969"/><stop stop-opacity="1" stop-color="rgb(31.845093%, 79.23584%, 55.278015%)" offset="0.421875"/><stop stop-opacity="1" stop-color="rgb(31.503296%, 79.121399%, 55.688477%)" offset="0.425781"/><stop stop-opacity="1" stop-color="rgb(31.163025%, 79.008484%, 56.100464%)" offset="0.429688"/><stop stop-opacity="1" stop-color="rgb(30.822754%, 78.894043%, 56.510925%)" offset="0.433594"/><stop stop-opacity="1" stop-color="rgb(30.482483%, 78.781128%, 56.922913%)" offset="0.4375"/><stop stop-opacity="1" stop-color="rgb(30.140686%, 78.666687%, 57.333374%)" offset="0.441406"/><stop stop-opacity="1" stop-color="rgb(29.800415%, 78.552246%, 57.745361%)" offset="0.445313"/><stop stop-opacity="1" stop-color="rgb(29.458618%, 78.437805%, 58.155823%)" offset="0.449219"/><stop stop-opacity="1" stop-color="rgb(29.118347%, 78.32489%, 58.56781%)" offset="0.453125"/><stop stop-opacity="1" stop-color="rgb(28.77655%, 78.210449%, 58.978271%)" offset="0.457031"/><stop stop-opacity="1" stop-color="rgb(28.436279%, 78.097534%, 59.390259%)" offset="0.460938"/><stop stop-opacity="1" stop-color="rgb(28.094482%, 77.983093%, 59.80072%)" offset="0.464844"/><stop stop-opacity="1" stop-color="rgb(27.754211%, 77.870178%, 60.212708%)" offset="0.46875"/><stop stop-opacity="1" stop-color="rgb(27.412415%, 77.755737%, 60.623169%)" offset="0.472656"/><stop stop-opacity="1" stop-color="rgb(27.072144%, 77.641296%, 61.035156%)" offset="0.476562"/><stop stop-opacity="1" stop-color="rgb(26.730347%, 77.526855%, 61.447144%)" offset="0.480469"/><stop stop-opacity="1" stop-color="rgb(26.390076%, 77.41394%, 61.859131%)" offset="0.484375"/><stop stop-opacity="1" stop-color="rgb(26.049805%, 77.2995%, 62.269592%)" offset="0.488281"/><stop stop-opacity="1" stop-color="rgb(25.709534%, 77.186584%, 62.68158%)" offset="0.492188"/><stop stop-opacity="1" stop-color="rgb(25.367737%, 77.072144%, 63.092041%)" offset="0.496094"/><stop stop-opacity="1" stop-color="rgb(25.027466%, 76.959229%, 63.504028%)" offset="0.5"/><stop stop-opacity="1" stop-color="rgb(24.685669%, 76.844788%, 63.91449%)" offset="0.503906"/><stop stop-opacity="1" stop-color="rgb(24.345398%, 76.730347%, 64.326477%)" offset="0.507812"/><stop stop-opacity="1" stop-color="rgb(24.003601%, 76.615906%, 64.736938%)" offset="0.511719"/><stop stop-opacity="1" stop-color="rgb(23.66333%, 76.502991%, 65.148926%)" offset="0.515625"/><stop stop-opacity="1" stop-color="rgb(23.321533%, 76.38855%, 65.559387%)" offset="0.519531"/><stop stop-opacity="1" stop-color="rgb(22.981262%, 76.275635%, 65.971375%)" offset="0.523438"/><stop stop-opacity="1" stop-color="rgb(22.639465%, 76.161194%, 66.381836%)" offset="0.527344"/><stop stop-opacity="1" stop-color="rgb(22.299194%, 76.048279%, 66.793823%)" offset="0.53125"/><stop stop-opacity="1" stop-color="rgb(21.958923%, 75.933838%, 67.204285%)" offset="0.535156"/><stop stop-opacity="1" stop-color="rgb(21.618652%, 75.819397%, 67.616272%)" offset="0.539062"/><stop stop-opacity="1" stop-color="rgb(21.276855%, 75.704956%, 68.026733%)" offset="0.542969"/><stop stop-opacity="1" stop-color="rgb(20.936584%, 75.592041%, 68.438721%)" offset="0.546875"/><stop stop-opacity="1" stop-color="rgb(20.594788%, 75.4776%, 68.849182%)" offset="0.550781"/><stop stop-opacity="1" stop-color="rgb(20.254517%, 75.364685%, 69.261169%)" offset="0.554688"/><stop stop-opacity="1" stop-color="rgb(19.91272%, 75.250244%, 69.673157%)" offset="0.558594"/><stop stop-opacity="1" stop-color="rgb(19.572449%, 75.137329%, 70.085144%)" offset="0.5625"/><stop stop-opacity="1" stop-color="rgb(19.230652%, 75.022888%, 70.495605%)" offset="0.566406"/><stop stop-opacity="1" stop-color="rgb(18.890381%, 74.908447%, 70.907593%)" offset="0.570312"/><stop stop-opacity="1" stop-color="rgb(18.548584%, 74.794006%, 71.318054%)" offset="0.574219"/><stop stop-opacity="1" stop-color="rgb(18.208313%, 74.681091%, 71.730042%)" offset="0.578125"/><stop stop-opacity="1" stop-color="rgb(17.866516%, 74.56665%, 72.140503%)" offset="0.582031"/><stop stop-opacity="1" stop-color="rgb(17.526245%, 74.453735%, 72.55249%)" offset="0.585938"/><stop stop-opacity="1" stop-color="rgb(17.185974%, 74.339294%, 72.962952%)" offset="0.589844"/><stop stop-opacity="1" stop-color="rgb(16.845703%, 74.226379%, 73.374939%)" offset="0.59375"/><stop stop-opacity="1" stop-color="rgb(16.503906%, 74.111938%, 73.7854%)" offset="0.597656"/><stop stop-opacity="1" stop-color="rgb(16.163635%, 73.997498%, 74.197388%)" offset="0.601562"/><stop stop-opacity="1" stop-color="rgb(15.821838%, 73.883057%, 74.607849%)" offset="0.605469"/><stop stop-opacity="1" stop-color="rgb(15.481567%, 73.770142%, 75.019836%)" offset="0.609375"/><stop stop-opacity="1" stop-color="rgb(15.139771%, 73.655701%, 75.430298%)" offset="0.613281"/><stop stop-opacity="1" stop-color="rgb(14.7995%, 73.542786%, 75.842285%)" offset="0.617188"/><stop stop-opacity="1" stop-color="rgb(14.457703%, 73.428345%, 76.252747%)" offset="0.621094"/><stop stop-opacity="1" stop-color="rgb(14.117432%, 73.31543%, 76.664734%)" offset="0.625"/><stop stop-opacity="1" stop-color="rgb(13.775635%, 73.200989%, 77.076721%)" offset="0.628906"/><stop stop-opacity="1" stop-color="rgb(13.435364%, 73.086548%, 77.488708%)" offset="0.632812"/><stop stop-opacity="1" stop-color="rgb(13.095093%, 72.972107%, 77.89917%)" offset="0.636719"/><stop stop-opacity="1" stop-color="rgb(12.754822%, 72.859192%, 78.311157%)" offset="0.640625"/><stop stop-opacity="1" stop-color="rgb(12.413025%, 72.744751%, 78.721619%)" offset="0.644531"/><stop stop-opacity="1" stop-color="rgb(12.072754%, 72.631836%, 79.133606%)" offset="0.648438"/><stop stop-opacity="1" stop-color="rgb(11.730957%, 72.517395%, 79.544067%)" offset="0.652344"/><stop stop-opacity="1" stop-color="rgb(11.390686%, 72.40448%, 79.956055%)" offset="0.65625"/><stop stop-opacity="1" stop-color="rgb(11.048889%, 72.290039%, 80.366516%)" offset="0.660156"/><stop stop-opacity="1" stop-color="rgb(10.708618%, 72.175598%, 80.778503%)" offset="0.664062"/><stop stop-opacity="1" stop-color="rgb(10.366821%, 72.061157%, 81.188965%)" offset="0.667969"/><stop stop-opacity="1" stop-color="rgb(10.02655%, 71.948242%, 81.600952%)" offset="0.671875"/><stop stop-opacity="1" stop-color="rgb(9.684753%, 71.833801%, 82.011414%)" offset="0.675781"/><stop stop-opacity="1" stop-color="rgb(9.344482%, 71.720886%, 82.423401%)" offset="0.679688"/><stop stop-opacity="1" stop-color="rgb(9.004211%, 71.606445%, 82.833862%)" offset="0.683594"/><stop stop-opacity="1" stop-color="rgb(8.66394%, 71.49353%, 83.24585%)" offset="0.6875"/><stop stop-opacity="1" stop-color="rgb(8.322144%, 71.379089%, 83.656311%)" offset="0.691406"/><stop stop-opacity="1" stop-color="rgb(7.981873%, 71.264648%, 84.068298%)" offset="0.695312"/><stop stop-opacity="1" stop-color="rgb(7.640076%, 71.150208%, 84.480286%)" offset="0.699219"/><stop stop-opacity="1" stop-color="rgb(7.299805%, 71.037292%, 84.892273%)" offset="0.703125"/><stop stop-opacity="1" stop-color="rgb(6.958008%, 70.922852%, 85.302734%)" offset="0.707031"/><stop stop-opacity="1" stop-color="rgb(6.617737%, 70.809937%, 85.714722%)" offset="0.710938"/><stop stop-opacity="1" stop-color="rgb(6.27594%, 70.695496%, 86.125183%)" offset="0.714844"/><stop stop-opacity="1" stop-color="rgb(5.935669%, 70.582581%, 86.53717%)" offset="0.71875"/><stop stop-opacity="1" stop-color="rgb(5.593872%, 70.46814%, 86.947632%)" offset="0.722656"/><stop stop-opacity="1" stop-color="rgb(5.253601%, 70.353699%, 87.359619%)" offset="0.726563"/><stop stop-opacity="1" stop-color="rgb(4.911804%, 70.239258%, 87.770081%)" offset="0.730469"/><stop stop-opacity="1" stop-color="rgb(4.571533%, 70.126343%, 88.182068%)" offset="0.734375"/><stop stop-opacity="1" stop-color="rgb(4.231262%, 70.011902%, 88.592529%)" offset="0.738281"/><stop stop-opacity="1" stop-color="rgb(3.890991%, 69.898987%, 89.004517%)" offset="0.742188"/><stop stop-opacity="1" stop-color="rgb(3.549194%, 69.784546%, 89.414978%)" offset="0.746094"/><stop stop-opacity="1" stop-color="rgb(3.208923%, 69.671631%, 89.826965%)" offset="0.75"/><stop stop-opacity="1" stop-color="rgb(2.867126%, 69.55719%, 90.237427%)" offset="0.753906"/><stop stop-opacity="1" stop-color="rgb(2.526855%, 69.442749%, 90.649414%)" offset="0.757812"/><stop stop-opacity="1" stop-color="rgb(2.185059%, 69.328308%, 91.059875%)" offset="0.761719"/><stop stop-opacity="1" stop-color="rgb(1.844788%, 69.215393%, 91.471863%)" offset="0.765625"/><stop stop-opacity="1" stop-color="rgb(1.502991%, 69.100952%, 91.88385%)" offset="0.769531"/><stop stop-opacity="1" stop-color="rgb(1.16272%, 68.988037%, 92.295837%)" offset="0.773438"/><stop stop-opacity="1" stop-color="rgb(0.820923%, 68.873596%, 92.706299%)" offset="0.777344"/><stop stop-opacity="1" stop-color="rgb(0.480652%, 68.760681%, 93.118286%)" offset="0.78125"/><stop stop-opacity="1" stop-color="rgb(0.239563%, 68.67981%, 93.408203%)" offset="0.785156"/><stop stop-opacity="1" stop-color="rgb(0%, 68.598938%, 93.699646%)" offset="0.789062"/><stop stop-opacity="1" stop-color="rgb(0%, 68.598938%, 93.699646%)" offset="0.796875"/><stop stop-opacity="1" stop-color="rgb(0%, 68.598938%, 93.699646%)" offset="0.8125"/><stop stop-opacity="1" stop-color="rgb(0%, 68.598938%, 93.699646%)" offset="0.875"/><stop stop-opacity="1" stop-color="rgb(0%, 68.598938%, 93.699646%)" offset="1"/></linearGradient></defs><rect x="-37.5" width="450" fill="#ffffff" y="-37.499999" height="449.999989" fill-opacity="1"/><rect x="-37.5" width="450" fill="#ffffff" y="-37.499999" height="449.999989" fill-opacity="1"/><rect x="-37.5" width="450" fill="#00141b" y="-37.499999" height="449.999989" fill-opacity="1"/><g clip-path="url(#c7172ac6c9)"><g clip-path="url(#69ab32ed79)"><path fill="url(#a388d5bbcc)" d="M 118.570312 94.859375 L 118.570312 191.609375 L 241.570312 191.609375 L 241.570312 94.859375 Z M 118.570312 94.859375 " fill-rule="nonzero"/></g></g><g fill="#d9d9d9" fill-opacity="1"><g transform="translate(92.019189, 240.963666)"><g><path d="M 19.234375 -23.40625 L 9.734375 -23.40625 L 9.734375 -16.34375 L 17.96875 -16.34375 L 17.96875 -11.140625 L 9.734375 -11.140625 L 9.734375 0 L 1.8125 0 L 1.8125 -29.0625 L 19.234375 -29.0625 Z M 19.234375 -23.40625 "/></g></g></g><g fill="#d9d9d9" fill-opacity="1"><g transform="translate(111.933835, 240.963666)"><g><path d="M 12.40625 -22.59375 L 20.09375 -22.59375 L 20.09375 0 L 12.53125 0 L 12.53125 -2.890625 C 12.113281 -0.960938 10.742188 0 8.421875 0 L 7.609375 0 C 3.585938 0 1.578125 -1.867188 1.578125 -5.609375 L 1.578125 -22.59375 L 9.28125 -22.59375 L 9.28125 -6.65625 C 9.28125 -5.988281 9.65625 -5.65625 10.40625 -5.65625 L 11.1875 -5.65625 C 12 -5.65625 12.40625 -6.109375 12.40625 -7.015625 Z M 12.40625 -22.59375 "/></g></g></g><g fill="#d9d9d9" fill-opacity="1"><g transform="translate(133.839941, 240.963666)"><g><path d="M 9.5 0 L 1.8125 0 L 1.8125 -30.28125 L 9.5 -30.28125 Z M 9.5 0 "/></g></g></g><g fill="#d9d9d9" fill-opacity="1"><g transform="translate(145.155077, 240.963666)"><g><path d="M 13.984375 -24.84375 L 11.59375 -24.84375 C 10.832031 -24.84375 10.453125 -24.515625 10.453125 -23.859375 L 10.453125 -22.59375 L 13.984375 -22.59375 L 13.984375 -16.921875 L 10.453125 -16.921875 L 10.453125 0 L 2.765625 0 L 2.765625 -16.921875 L 0.453125 -16.921875 L 0.453125 -22.59375 L 2.765625 -22.59375 L 2.765625 -24.671875 C 2.765625 -28.410156 4.984375 -30.28125 9.421875 -30.28125 L 13.984375 -30.28125 Z M 13.984375 -24.84375 "/></g></g></g><g fill="#d9d9d9" fill-opacity="1"><g transform="translate(159.366888, 240.963666)"><g><path d="M 1.671875 -24.84375 L 1.671875 -30.28125 L 9.640625 -30.28125 L 9.640625 -24.84375 Z M 9.5 0 L 1.8125 0 L 1.8125 -22.59375 L 9.5 -22.59375 Z M 9.5 0 "/></g></g></g><g fill="#d9d9d9" fill-opacity="1"><g transform="translate(170.682024, 240.963666)"><g><path d="M 9.5 0 L 1.8125 0 L 1.8125 -30.28125 L 9.5 -30.28125 Z M 9.5 0 "/></g></g></g><g fill="#d9d9d9" fill-opacity="1"><g transform="translate(181.99716, 240.963666)"><g><path d="M 9.5 0 L 1.8125 0 L 1.8125 -30.28125 L 9.5 -30.28125 Z M 9.5 0 "/></g></g></g><g fill="#d9d9d9" fill-opacity="1"><g transform="translate(193.312296, 240.963666)"><g><path d="M 24.3125 -22.59375 L 25.125 -22.59375 C 29.132812 -22.59375 31.140625 -20.71875 31.140625 -16.96875 L 31.140625 0 L 23.453125 0 L 23.453125 -15.9375 C 23.453125 -16.59375 23.070312 -16.921875 22.3125 -16.921875 L 21.546875 -16.921875 C 20.734375 -16.921875 20.328125 -16.472656 20.328125 -15.578125 L 20.328125 0 L 12.625 0 L 12.625 -15.9375 C 12.625 -16.59375 12.25 -16.921875 11.5 -16.921875 L 10.734375 -16.921875 C 9.910156 -16.921875 9.5 -16.472656 9.5 -15.578125 L 9.5 0 L 1.8125 0 L 1.8125 -22.59375 L 9.375 -22.59375 L 9.375 -19.6875 C 9.789062 -21.625 11.160156 -22.59375 13.484375 -22.59375 L 14.296875 -22.59375 C 17.109375 -22.59375 18.953125 -21.640625 19.828125 -19.734375 C 20.066406 -20.609375 20.59375 -21.300781 21.40625 -21.8125 C 22.226562 -22.332031 23.195312 -22.59375 24.3125 -22.59375 Z M 24.3125 -22.59375 "/></g></g></g><g fill="#d9d9d9" fill-opacity="1"><g transform="translate(226.035678, 240.963666)"><g><path d="M 8.015625 -22.59375 L 13.53125 -22.59375 C 17.96875 -22.59375 20.1875 -20.71875 20.1875 -16.96875 L 20.1875 -9.28125 L 8.640625 -9.28125 L 8.640625 -6.296875 C 8.640625 -5.628906 9.019531 -5.296875 9.78125 -5.296875 L 11.765625 -5.296875 C 12.523438 -5.296875 12.90625 -5.65625 12.90625 -6.375 L 12.90625 -7.65625 L 20.1875 -7.65625 L 20.1875 -5.609375 C 20.1875 -1.867188 17.96875 0 13.53125 0 L 8.015625 0 C 3.578125 0 1.359375 -1.867188 1.359375 -5.609375 L 1.359375 -16.96875 C 1.359375 -20.71875 3.578125 -22.59375 8.015625 -22.59375 Z M 8.640625 -13.4375 L 12.90625 -13.4375 L 12.90625 -16.296875 C 12.90625 -16.960938 12.523438 -17.296875 11.765625 -17.296875 L 9.78125 -17.296875 C 9.019531 -17.296875 8.640625 -16.960938 8.640625 -16.296875 Z M 8.640625 -13.4375 "/></g></g></g><g fill="#d9d9d9" fill-opacity="1"><g transform="translate(247.353399, 240.963666)"><g><path d="M 13.484375 -22.59375 L 14.296875 -22.59375 C 18.316406 -22.59375 20.328125 -20.71875 20.328125 -16.96875 L 20.328125 0 L 12.625 0 L 12.625 -15.9375 C 12.625 -16.59375 12.25 -16.921875 11.5 -16.921875 L 10.734375 -16.921875 C 9.910156 -16.921875 9.5 -16.472656 9.5 -15.578125 L 9.5 0 L 1.8125 0 L 1.8125 -22.59375 L 9.375 -22.59375 L 9.375 -19.6875 C 9.789062 -21.625 11.160156 -22.59375 13.484375 -22.59375 Z M 13.484375 -22.59375 "/></g></g></g><g fill="#d9d9d9" fill-opacity="1"><g transform="translate(269.259506, 240.963666)"><g><path d="M 13.265625 -16.921875 L 10.40625 -16.921875 L 10.40625 -6.65625 C 10.40625 -5.988281 10.785156 -5.65625 11.546875 -5.65625 L 13.21875 -5.65625 L 13.21875 0 L 9.375 0 C 4.9375 0 2.71875 -1.867188 2.71875 -5.609375 L 2.71875 -16.921875 L 0.21875 -16.921875 L 0.21875 -22.59375 L 2.71875 -22.59375 L 2.71875 -27.03125 L 10.40625 -27.03125 L 10.40625 -22.59375 L 13.265625 -22.59375 Z M 13.265625 -16.921875 "/></g></g></g><g fill="#d9d9d9" fill-opacity="1"><g transform="translate(114.683097, 275.577229)"><g><path d="M 3.859375 -10.890625 L 6.515625 -10.890625 C 8.660156 -10.890625 9.734375 -9.984375 9.734375 -8.171875 L 9.734375 -4.46875 L 4.171875 -4.46875 L 4.171875 -3.03125 C 4.171875 -2.707031 4.351562 -2.546875 4.71875 -2.546875 L 5.671875 -2.546875 C 6.035156 -2.546875 6.21875 -2.722656 6.21875 -3.078125 L 6.21875 -3.6875 L 9.734375 -3.6875 L 9.734375 -2.703125 C 9.734375 -0.898438 8.660156 0 6.515625 0 L 3.859375 0 C 1.722656 0 0.65625 -0.898438 0.65625 -2.703125 L 0.65625 -8.171875 C 0.65625 -9.984375 1.722656 -10.890625 3.859375 -10.890625 Z M 4.171875 -6.484375 L 6.21875 -6.484375 L 6.21875 -7.859375 C 6.21875 -8.171875 6.035156 -8.328125 5.671875 -8.328125 L 4.71875 -8.328125 C 4.351562 -8.328125 4.171875 -8.171875 4.171875 -7.859375 Z M 4.171875 -6.484375 "/></g></g></g><g fill="#d9d9d9" fill-opacity="1"><g transform="translate(126.045416, 275.577229)"><g><path d="M 9.3125 -14 L 9.3125 -11.28125 L 6.609375 -11.28125 L 6.609375 0 L 2.796875 0 L 2.796875 -11.28125 L 0.109375 -11.28125 L 0.109375 -14 Z M 9.3125 -14 "/></g></g></g><g fill="#d9d9d9" fill-opacity="1"><g transform="translate(136.55721, 275.577229)"><g><path d="M 6.875 -11 L 7.203125 -11 L 7.203125 -7.765625 L 5.953125 -7.765625 C 5.035156 -7.765625 4.578125 -7.269531 4.578125 -6.28125 L 4.578125 0 L 0.875 0 L 0.875 -10.890625 L 4.515625 -10.890625 L 4.515625 -9.203125 C 4.628906 -9.753906 4.890625 -10.191406 5.296875 -10.515625 C 5.703125 -10.835938 6.226562 -11 6.875 -11 Z M 6.875 -11 "/></g></g></g><g fill="#d9d9d9" fill-opacity="1"><g transform="translate(144.953577, 275.577229)"><g><path d="M 5.9375 -10.890625 L 9.578125 -10.890625 L 9.578125 0 L 5.875 0 L 5.875 -1.171875 C 5.59375 -0.390625 4.953125 0 3.953125 0 L 3.5625 0 C 1.625 0 0.65625 -0.898438 0.65625 -2.703125 L 0.65625 -8.171875 C 0.65625 -9.984375 1.625 -10.890625 3.5625 -10.890625 L 3.953125 -10.890625 C 5.066406 -10.890625 5.726562 -10.421875 5.9375 -9.484375 Z M 4.90625 -2.71875 L 5.28125 -2.71875 C 5.675781 -2.71875 5.875 -2.9375 5.875 -3.375 L 5.875 -7.5 C 5.875 -7.9375 5.675781 -8.15625 5.28125 -8.15625 L 4.90625 -8.15625 C 4.539062 -8.15625 4.359375 -7.992188 4.359375 -7.671875 L 4.359375 -3.203125 C 4.359375 -2.878906 4.539062 -2.71875 4.90625 -2.71875 Z M 4.90625 -2.71875 "/></g></g></g><g fill="#d9d9d9" fill-opacity="1"><g transform="translate(156.490359, 275.577229)"><g><path d="M 5.875 -14.59375 L 9.578125 -14.59375 L 9.578125 0 L 5.9375 0 L 5.9375 -1.390625 C 5.726562 -0.460938 5.066406 0 3.953125 0 L 3.5625 0 C 1.625 0 0.65625 -0.898438 0.65625 -2.703125 L 0.65625 -8.171875 C 0.65625 -9.984375 1.625 -10.890625 3.5625 -10.890625 L 3.953125 -10.890625 C 4.953125 -10.890625 5.59375 -10.492188 5.875 -9.703125 Z M 4.90625 -2.71875 L 5.28125 -2.71875 C 5.675781 -2.71875 5.875 -2.9375 5.875 -3.375 L 5.875 -7.5 C 5.875 -7.9375 5.675781 -8.15625 5.28125 -8.15625 L 4.90625 -8.15625 C 4.539062 -8.15625 4.359375 -7.992188 4.359375 -7.671875 L 4.359375 -3.203125 C 4.359375 -2.878906 4.539062 -2.71875 4.90625 -2.71875 Z M 4.90625 -2.71875 "/></g></g></g><g fill="#d9d9d9" fill-opacity="1"><g transform="translate(168.027141, 275.577229)"><g><path d="M 3.859375 -10.890625 L 6.515625 -10.890625 C 8.660156 -10.890625 9.734375 -9.984375 9.734375 -8.171875 L 9.734375 -4.46875 L 4.171875 -4.46875 L 4.171875 -3.03125 C 4.171875 -2.707031 4.351562 -2.546875 4.71875 -2.546875 L 5.671875 -2.546875 C 6.035156 -2.546875 6.21875 -2.722656 6.21875 -3.078125 L 6.21875 -3.6875 L 9.734375 -3.6875 L 9.734375 -2.703125 C 9.734375 -0.898438 8.660156 0 6.515625 0 L 3.859375 0 C 1.722656 0 0.65625 -0.898438 0.65625 -2.703125 L 0.65625 -8.171875 C 0.65625 -9.984375 1.722656 -10.890625 3.859375 -10.890625 Z M 4.171875 -6.484375 L 6.21875 -6.484375 L 6.21875 -7.859375 C 6.21875 -8.171875 6.035156 -8.328125 5.671875 -8.328125 L 4.71875 -8.328125 C 4.351562 -8.328125 4.171875 -8.171875 4.171875 -7.859375 Z M 4.171875 -6.484375 "/></g></g></g><g fill="#d9d9d9" fill-opacity="1"><g transform="translate(179.389459, 275.577229)"><g/></g></g><g fill="#d9d9d9" fill-opacity="1"><g transform="translate(184.84167, 275.577229)"><g><path d="M 0.875 -14 L 7.34375 -14 C 9.488281 -14 10.5625 -13.097656 10.5625 -11.296875 L 10.5625 -7.28125 C 10.5625 -5.476562 9.488281 -4.578125 7.34375 -4.578125 L 4.6875 -4.578125 L 4.6875 0 L 0.875 0 Z M 6.734375 -7.78125 L 6.734375 -10.796875 C 6.734375 -11.117188 6.550781 -11.28125 6.1875 -11.28125 L 4.6875 -11.28125 L 4.6875 -7.3125 L 6.1875 -7.3125 C 6.550781 -7.3125 6.734375 -7.46875 6.734375 -7.78125 Z M 6.734375 -7.78125 "/></g></g></g><g fill="#d9d9d9" fill-opacity="1"><g transform="translate(196.923672, 275.577229)"><g><path d="M 5.9375 -10.890625 L 9.578125 -10.890625 L 9.578125 0 L 5.875 0 L 5.875 -1.171875 C 5.59375 -0.390625 4.953125 0 3.953125 0 L 3.5625 0 C 1.625 0 0.65625 -0.898438 0.65625 -2.703125 L 0.65625 -8.171875 C 0.65625 -9.984375 1.625 -10.890625 3.5625 -10.890625 L 3.953125 -10.890625 C 5.066406 -10.890625 5.726562 -10.421875 5.9375 -9.484375 Z M 4.90625 -2.71875 L 5.28125 -2.71875 C 5.675781 -2.71875 5.875 -2.9375 5.875 -3.375 L 5.875 -7.5 C 5.875 -7.9375 5.675781 -8.15625 5.28125 -8.15625 L 4.90625 -8.15625 C 4.539062 -8.15625 4.359375 -7.992188 4.359375 -7.671875 L 4.359375 -3.203125 C 4.359375 -2.878906 4.539062 -2.71875 4.90625 -2.71875 Z M 4.90625 -2.71875 "/></g></g></g><g fill="#d9d9d9" fill-opacity="1"><g transform="translate(208.460454, 275.577229)"><g><path d="M 6.875 -11 L 7.203125 -11 L 7.203125 -7.765625 L 5.953125 -7.765625 C 5.035156 -7.765625 4.578125 -7.269531 4.578125 -6.28125 L 4.578125 0 L 0.875 0 L 0.875 -10.890625 L 4.515625 -10.890625 L 4.515625 -9.203125 C 4.628906 -9.753906 4.890625 -10.191406 5.296875 -10.515625 C 5.703125 -10.835938 6.226562 -11 6.875 -11 Z M 6.875 -11 "/></g></g></g><g fill="#d9d9d9" fill-opacity="1"><g transform="translate(216.856823, 275.577229)"><g><path d="M 6.390625 -8.15625 L 5.015625 -8.15625 L 5.015625 -3.203125 C 5.015625 -2.878906 5.195312 -2.71875 5.5625 -2.71875 L 6.375 -2.71875 L 6.375 0 L 4.515625 0 C 2.378906 0 1.3125 -0.898438 1.3125 -2.703125 L 1.3125 -8.15625 L 0.109375 -8.15625 L 0.109375 -10.890625 L 1.3125 -10.890625 L 1.3125 -13.015625 L 5.015625 -13.015625 L 5.015625 -10.890625 L 6.390625 -10.890625 Z M 6.390625 -8.15625 "/></g></g></g><g fill="#d9d9d9" fill-opacity="1"><g transform="translate(224.555321, 275.577229)"><g><path d="M 6.5 -10.890625 L 6.890625 -10.890625 C 8.828125 -10.890625 9.796875 -9.984375 9.796875 -8.171875 L 9.796875 0 L 6.078125 0 L 6.078125 -7.671875 C 6.078125 -7.992188 5.898438 -8.15625 5.546875 -8.15625 L 5.171875 -8.15625 C 4.773438 -8.15625 4.578125 -7.9375 4.578125 -7.5 L 4.578125 0 L 0.875 0 L 0.875 -10.890625 L 4.515625 -10.890625 L 4.515625 -9.484375 C 4.722656 -10.421875 5.382812 -10.890625 6.5 -10.890625 Z M 6.5 -10.890625 "/></g></g></g><g fill="#d9d9d9" fill-opacity="1"><g transform="translate(236.20116, 275.577229)"><g><path d="M 3.859375 -10.890625 L 6.515625 -10.890625 C 8.660156 -10.890625 9.734375 -9.984375 9.734375 -8.171875 L 9.734375 -4.46875 L 4.171875 -4.46875 L 4.171875 -3.03125 C 4.171875 -2.707031 4.351562 -2.546875 4.71875 -2.546875 L 5.671875 -2.546875 C 6.035156 -2.546875 6.21875 -2.722656 6.21875 -3.078125 L 6.21875 -3.6875 L 9.734375 -3.6875 L 9.734375 -2.703125 C 9.734375 -0.898438 8.660156 0 6.515625 0 L 3.859375 0 C 1.722656 0 0.65625 -0.898438 0.65625 -2.703125 L 0.65625 -8.171875 C 0.65625 -9.984375 1.722656 -10.890625 3.859375 -10.890625 Z M 4.171875 -6.484375 L 6.21875 -6.484375 L 6.21875 -7.859375 C 6.21875 -8.171875 6.035156 -8.328125 5.671875 -8.328125 L 4.71875 -8.328125 C 4.351562 -8.328125 4.171875 -8.171875 4.171875 -7.859375 Z M 4.171875 -6.484375 "/></g></g></g><g fill="#d9d9d9" fill-opacity="1"><g transform="translate(247.563483, 275.577229)"><g><path d="M 6.875 -11 L 7.203125 -11 L 7.203125 -7.765625 L 5.953125 -7.765625 C 5.035156 -7.765625 4.578125 -7.269531 4.578125 -6.28125 L 4.578125 0 L 0.875 0 L 0.875 -10.890625 L 4.515625 -10.890625 L 4.515625 -9.203125 C 4.628906 -9.753906 4.890625 -10.191406 5.296875 -10.515625 C 5.703125 -10.835938 6.226562 -11 6.875 -11 Z M 6.875 -11 "/></g></g></g><g fill="#d9d9d9" fill-opacity="1"><g transform="translate(255.952619, 275.577229)"><g/></g></g></svg>